<?xml version="1.0" standalone="no"?>
<!DOCTYPE svg PUBLIC "-//W3C//DTD SVG 20010904//EN"
 "http://www.w3.org/TR/2001/REC-SVG-20010904/DTD/svg10.dtd">
<svg version="1.0" xmlns="http://www.w3.org/2000/svg"
 width="700.000000pt" height="700.000000pt" viewBox="0 0 700.000000 700.000000"
 preserveAspectRatio="xMidYMid meet">
<metadata>
Created by potrace 1.14, written by Peter Selinger 2001-2017
</metadata>
<g transform="translate(0.000000,700.000000) scale(0.100000,-0.100000)"
fill="#000000" stroke="none">
<path d="M3274 5029 c-270 -24 -549 -112 -757 -238 -519 -315 -755 -861 -687
-1586 44 -468 236 -821 561 -1038 200 -133 436 -213 764 -259 140 -20 581 -16
730 6 609 89 994 351 1187 806 55 129 87 258 113 463 l6 47 -402 -2 -402 -3
-18 -80 c-71 -331 -248 -509 -574 -581 -109 -25 -379 -30 -500 -10 -318 52
-540 224 -631 486 -73 209 -82 529 -22 759 60 230 204 413 402 510 198 98 490
125 752 72 281 -58 464 -219 544 -481 16 -52 32 -112 35 -132 l6 -38 404 0
405 0 -6 48 c-20 163 -71 343 -134 477 -126 266 -368 497 -649 621 -303 133
-719 190 -1127 153z"/>
</g>
</svg>
