<svg width="20" height="20" viewBox="0 0 20 20" fill="none" xmlns="http://www.w3.org/2000/svg">
<g id="Frame 104">
<g id="Group">
<path id="Vector" d="M6.85352 14.8191C7.47442 15.5917 8.10431 16.5597 8.43546 17.1458C8.8386 17.9077 9.00417 18.4222 9.30472 19.34C9.48109 19.8455 9.64667 19.9996 9.99761 19.9996C10.3809 19.9996 10.5555 19.7415 10.6905 19.34C10.9695 18.4742 11.1872 17.8163 11.5274 17.1871C12.1987 15.9825 13.0481 14.9105 13.8742 13.8815C14.1009 13.5929 15.5497 11.8936 16.2012 10.5455C16.2012 10.5455 16.9967 9.07203 16.9967 7.01235C16.9967 5.08711 16.2102 3.74805 16.2102 3.74805L13.9354 4.35573L12.5496 7.98035L12.2077 8.4751L12.1357 8.56831L12.0421 8.68125L11.8873 8.86588L11.6605 9.09175L10.4295 10.0902L7.35923 11.8613L6.85352 14.8191Z" fill="#34A853"/>
<path id="Vector_2" d="M3.67871 10.299C4.43279 12.0092 5.87076 13.5024 6.8534 14.82L12.0546 8.68214C12.0546 8.68214 11.3203 9.63938 9.99749 9.63938C8.51813 9.63938 7.31952 8.46523 7.31952 6.98276C7.31952 5.96278 7.92963 5.26367 7.92963 5.26367L4.40219 6.20119L3.67871 10.299Z" fill="#FBBC04"/>
<path id="Vector_3" d="M12.1157 0.319336C13.8416 0.875038 15.3209 2.03843 16.21 3.75931L12.0527 8.69251C12.0527 8.69251 12.6628 7.98265 12.6628 6.97342C12.6628 5.45868 11.3814 4.31681 9.9956 4.31681C8.68181 4.31681 7.92773 5.26508 7.92773 5.26508V2.15315L12.1157 0.319336Z" fill="#4285F4"/>
<path id="Vector_4" d="M4.62915 2.4917C5.66218 1.26557 7.47269 0 9.97429 0C11.1837 0 12.1033 0.319081 12.1033 0.319081L7.92802 5.26304H4.9711L4.62915 2.4917Z" fill="#1A73E8"/>
<path id="Vector_5" d="M3.67867 10.2979C3.67867 10.2979 2.99658 8.9481 2.99658 7.00314C2.99658 5.16036 3.72007 3.55241 4.63972 2.50195L7.93859 5.2715L3.67867 10.2979Z" fill="#EA4335"/>
</g>
</g>
</svg>
