<svg width="20" height="20" viewBox="0 0 20 20" fill="none" xmlns="http://www.w3.org/2000/svg">
<g id="Frame">
<path id="Vector" d="M10.0002 0.833008C8.51734 0.833789 7.06802 1.274 5.83526 2.09803C4.6025 2.92207 3.6416 4.09296 3.07393 5.46281C2.50626 6.83266 2.3573 8.34002 2.64585 9.79449C2.93441 11.249 3.64753 12.5853 4.69516 13.6347C6.05349 14.993 9.25016 16.958 9.43932 19.0222C9.46766 19.3305 9.69182 19.583 10.0002 19.583C10.3085 19.583 10.5335 19.3305 10.561 19.0222C10.7502 16.958 13.9443 14.9963 15.3018 13.6388C16.3507 12.5899 17.065 11.2535 17.3545 9.79862C17.644 8.34375 17.4956 6.83572 16.9282 5.46515C16.3608 4.09458 15.3997 2.923 14.1666 2.09851C12.9334 1.27401 11.4835 0.833626 10.0002 0.833008Z" fill="#FF4433"/>
<path id="Vector_2" d="M10 10.8992C9.66309 10.8992 9.32944 10.8329 9.01814 10.7039C8.70683 10.575 8.42398 10.386 8.18572 10.1477C7.94746 9.90947 7.75846 9.62662 7.62952 9.31531C7.50057 9.00401 7.4342 8.67036 7.4342 8.33341C7.4342 7.99646 7.50057 7.66281 7.62952 7.35151C7.75846 7.04021 7.94746 6.75735 8.18572 6.51909C8.42398 6.28083 8.70683 6.09184 9.01814 5.96289C9.32944 5.83395 9.66309 5.76758 10 5.76758C10.6805 5.76758 11.3332 6.03791 11.8144 6.51909C12.2955 7.00028 12.5659 7.65291 12.5659 8.33341C12.5659 9.01391 12.2955 9.66654 11.8144 10.1477C11.3332 10.6289 10.6805 10.8992 10 10.8992Z" fill="white"/>
</g>
</svg>
