<svg width="20" height="20" viewBox="0 0 20 20" fill="none" xmlns="http://www.w3.org/2000/svg">
<g id="Frame 105">
<circle id="Ellipse 5" cx="9.99658" cy="10" r="10" fill="#F97D41"/>
<path id="bull" fill-rule="evenodd" clip-rule="evenodd" d="M16.2223 7C14.253 7 12.4185 7.60435 10.8712 8.64359C9.955 9.25893 9.1397 10.0263 8.4584 10.9141C7.6281 10.26 6.6704 9.77717 5.6325 9.51102C5.0377 9.35846 4.417 9.27562 3.7778 9.27562C3.5153 9.27562 3.2559 9.28925 3 9.31598C3.936 9.4134 4.8226 9.68662 5.6325 10.1009C6.4647 10.5267 7.2146 11.1027 7.8508 11.7966C8.1897 12.1662 8.4959 12.569 8.7653 13C8.9546 12.583 9.1683 12.1808 9.4058 11.7964C10.1413 10.6054 11.097 9.58033 12.2137 8.78781C13.602 7.80246 15.2367 7.17497 17 7.03149C16.7434 7.01067 16.484 7 16.2223 7Z" fill="white"/>
</g>
</svg>
