<svg width="20" height="20" viewBox="0 0 20 20" fill="none" xmlns="http://www.w3.org/2000/svg">
<g id="Mask group">
<mask id="mask0_2643_708" style="mask-type:alpha" maskUnits="userSpaceOnUse" x="0" y="0" width="20" height="20">
<g id="Group">
<path id="Vector" fill-rule="evenodd" clip-rule="evenodd" d="M4.9697 0.00877948L5.82502 0L14.7245 0.00343623C14.8595 0.004811 14.9434 0.00649862 15.0273 0.00877948C15.4685 0.0204963 15.9136 0.0463361 16.3499 0.123854C16.7928 0.202404 17.2048 0.330913 17.6069 0.533504C18.0021 0.732284 18.3642 0.992052 18.6779 1.3025C18.9916 1.6122 19.2543 1.96983 19.4554 2.36085C19.6607 2.75879 19.7903 3.16603 19.8698 3.60393C19.9482 4.03526 19.9743 4.47522 19.9862 4.91139C19.9918 5.11155 19.9942 5.31173 19.9952 5.51223L19.9965 5.8687L19.9966 13.7681C19.9966 14.0059 19.9966 14.2436 19.9952 14.4817C19.9942 14.6818 19.9918 14.882 19.9862 15.0822C19.9743 15.518 19.9482 15.9583 19.8698 16.3893C19.7903 16.8272 19.6607 17.2348 19.4554 17.6327C19.2543 18.0234 18.9916 18.381 18.6779 18.6911C18.3642 19.0012 18.0021 19.2613 17.6069 19.4601C17.2048 19.6626 16.7928 19.7912 16.3499 19.8697C15.9136 19.9472 15.4685 19.9731 15.0273 19.9848L13.6981 19.9951L5.27221 19.9901C5.13726 19.9887 5.0535 19.9871 4.9697 19.9848C4.52849 19.9731 4.08344 19.9472 3.64711 19.8697C3.20418 19.7912 2.79225 19.6626 2.39007 19.4601C1.99451 19.2613 1.63276 19.0012 1.31909 18.6911C1.00546 18.381 0.742657 18.0234 0.541222 17.6327C0.336319 17.2348 0.206652 16.8272 0.126853 16.3893C0.0484288 15.9583 0.0226522 15.518 0.0108105 15.0822C0.00521766 14.882 0.00278078 14.6818 0.0017497 14.4817L0.000219308 14.1248L0 6.22542C0 5.98768 -7.56573e-09 5.74963 0.0017497 5.51223C0.00278078 5.31173 0.00521766 5.11155 0.0108105 4.91139C0.0226522 4.47522 0.0484288 4.03526 0.126853 3.60393C0.206652 3.16603 0.336319 2.75879 0.541222 2.36085C0.742657 1.96983 1.00546 1.6122 1.31909 1.3025C1.63276 0.992052 1.99451 0.732284 2.39007 0.533504C2.79225 0.330913 3.20418 0.202404 3.64711 0.123854C4.08344 0.0463361 4.52849 0.0204963 4.9697 0.00877948Z" fill="white"/>
</g>
</mask>
<g mask="url(#mask0_2643_708)">
<g id="Group_2">
<path id="Vector_2" d="M19.9969 -0.000976562H0.000244141V19.9957H19.9969V-0.000976562Z" fill="#19AA1E"/>
<path id="Vector_3" fill-rule="evenodd" clip-rule="evenodd" d="M0.000244141 -0.000976562H19.9969V6.56042L0.000244141 3.43595V-0.000976562Z" fill="#FFB919"/>
<path id="Vector_4" fill-rule="evenodd" clip-rule="evenodd" d="M0.000244141 17.8081L19.9969 14.6836V19.9952H0.000244141V17.8081Z" fill="#82D714"/>
<path id="Vector_5" fill-rule="evenodd" clip-rule="evenodd" d="M0.000244141 3.04102L6.98023 4.13161C7.84912 3.58161 8.88282 3.28007 9.99857 3.28007C11.5439 3.28007 12.9319 3.85857 13.9426 4.8744C14.0701 5.00259 14.1904 5.13663 14.3032 5.27583L19.9969 6.16546V6.95605L14.8813 6.15677C15.2614 6.88609 15.4664 7.69867 15.4664 8.52794C15.4664 9.59926 15.2268 10.6675 14.7314 11.7399L14.7163 11.7724L14.506 12.2232H14.0085C12.9813 12.2232 12.2998 12.5305 11.8544 13.075C11.5045 13.5026 11.3023 14.079 11.2342 14.7079L11.2321 14.7276L11.2222 14.8281L11.218 14.8718L11.2099 14.9573C11.1838 15.2381 11.1664 15.4762 11.1576 15.6703L19.9969 14.2891V15.0797L0.000244141 18.2042V17.4136L8.84954 16.0309L8.84564 15.8534L8.84448 15.8033L8.84373 15.7777L8.84239 15.738C8.83439 15.5228 8.81467 15.2469 8.78308 14.9126L8.77702 14.8492L8.76621 14.7394C8.70269 14.1072 8.50344 13.5234 8.15457 13.0895C7.71373 12.5412 7.0386 12.2294 6.01961 12.2233L5.98865 12.2232H5.49117L5.2808 11.7724C4.77523 10.689 4.53074 9.6101 4.53074 8.52794C4.53074 7.16707 5.08283 5.85114 6.05457 4.8744C6.08263 4.84621 6.11097 4.81834 6.13959 4.79085L0.000244141 3.83157V3.04102Z" fill="white"/>
<path id="Vector_6" fill-rule="evenodd" clip-rule="evenodd" d="M9.9986 4.06055C12.7903 4.06055 14.6853 6.20934 14.6853 8.5273C14.6853 9.45789 14.4823 10.4262 14.0085 11.4414C11.2615 11.4414 10.5834 13.4087 10.4552 14.6465L10.447 14.729C10.4036 15.1707 10.3784 15.5252 10.3716 15.7925L9.62751 15.9087L9.62732 15.8846C9.62451 15.6045 9.59805 15.2116 9.54793 14.7058L9.54571 14.6838C9.42729 13.4486 8.76347 11.4414 5.98868 11.4414C5.51492 10.4262 5.31189 9.45789 5.31189 8.5273C5.31189 6.20934 7.20688 4.06055 9.9986 4.06055Z" fill="#0073FA"/>
</g>
</g>
</g>
</svg>
