<svg width="24" height="24" viewBox="0 0 24 24" fill="none" xmlns="http://www.w3.org/2000/svg">
<g id="warning-circle-svgrepo-com (1) 14" clip-path="url(#clip0_2743_463)">
<path id="Vector" d="M12 0C9.62663 0 7.30655 0.703787 5.33316 2.02236C3.35977 3.34094 1.8217 5.21508 0.913451 7.4078C0.00519943 9.60051 -0.232441 12.0133 0.230582 14.3411C0.693604 16.6689 1.83649 18.807 3.51472 20.4853C5.19295 22.1635 7.33115 23.3064 9.65892 23.7694C11.9867 24.2324 14.3995 23.9948 16.5922 23.0865C18.7849 22.1783 20.6591 20.6402 21.9776 18.6668C23.2962 16.6935 24 14.3734 24 12C23.9962 8.81855 22.7308 5.76849 20.4811 3.51886C18.2315 1.26924 15.1814 0.00375324 12 0ZM12 21.8182C10.0581 21.8182 8.1599 21.2424 6.54531 20.1635C4.93072 19.0847 3.6723 17.5513 2.92919 15.7573C2.18607 13.9632 1.99164 11.9891 2.37048 10.0846C2.74931 8.18003 3.6844 6.43059 5.0575 5.0575C6.4306 3.6844 8.18003 2.74931 10.0846 2.37047C11.9891 1.99163 13.9632 2.18607 15.7573 2.92918C17.5513 3.6723 19.0847 4.93072 20.1635 6.54531C21.2424 8.1599 21.8182 10.0581 21.8182 12C21.815 14.603 20.7796 17.0984 18.939 18.939C17.0984 20.7796 14.603 21.815 12 21.8182ZM13.0909 18.5455H10.9091V16.3636H13.0909V18.5455ZM13.0909 14.1818H10.9091V5.45454H13.0909V14.1818Z" fill="#FFB13C"/>
</g>
<defs>
<clipPath id="clip0_2743_463">
<rect width="24" height="24" fill="white"/>
</clipPath>
</defs>
</svg>
