<svg width="114" height="24" viewBox="0 0 114 24" fill="none" xmlns="http://www.w3.org/2000/svg">
<g id="Vector">
<path d="M5.19005 15.5314C5.19005 16.0335 5.4617 16.4051 6.00501 16.6461C6.54833 16.8871 7.26321 17.0076 8.14966 17.0076C9.37926 17.0076 10.3801 16.7565 11.1522 16.2544C11.9528 15.7524 12.3532 15.1097 12.3532 14.3264H13.1681C13.1681 16.0938 12.539 17.5197 11.2808 18.6042C10.0227 19.6887 8.36413 20.2309 6.30526 20.2309C4.47517 20.2309 2.95961 19.8594 1.75861 19.1163C0.586204 18.3532 0 17.3791 0 16.1942C0 15.1097 0.457525 14.2562 1.37257 13.6336C2.28762 12.9909 3.71739 12.4687 5.66187 12.0671L12.3532 10.7717V13.1214L7.46338 14.0854C5.94782 14.3867 5.19005 14.8687 5.19005 15.5314ZM17.5432 19.5983H12.3532L13.7686 16.1339L12.3532 15.6821V10.4403C12.3532 9.79766 12.0386 9.28553 11.4095 8.90395C10.7804 8.52237 9.95117 8.33158 8.92174 8.33158C7.86371 8.33158 6.99155 8.57258 6.30526 9.05458C5.61898 9.51649 5.21864 10.119 5.10426 10.8621L0 10.3801C0.314548 8.83366 1.27249 7.56841 2.87383 6.58433C4.47517 5.60024 6.51973 5.1082 9.00752 5.1082C11.5239 5.1082 13.5685 5.5902 15.1412 6.5542C16.7426 7.5182 17.5432 8.70312 17.5432 10.109V19.5983Z" fill="white"/>
<path d="M38.2036 6.31837H53.4881V9.94627H48.2936V19.7381H43.3982V9.94627H38.2036V6.31837Z" fill="white"/>
<path d="M66.7377 6.31837H71.9442L65.3732 19.9964C64.703 21.3975 63.8292 22.415 62.752 23.049C61.6748 23.683 60.4898 24 59.1972 24C58.1998 24 57.3061 23.8787 56.5161 23.636C55.7341 23.4012 54.9721 23.0216 54.23 22.4972V19.1745C54.9881 19.6442 55.6942 19.9807 56.3485 20.1842C57.0029 20.3878 57.721 20.4895 58.503 20.4895C59.2131 20.4895 59.8116 20.3408 60.2983 20.0434C60.7851 19.7459 61.1841 19.2372 61.4953 18.517L61.5072 18.4818H59.3647L53.5478 6.31837H58.9458L62.7999 15.4762L66.7377 6.31837Z" fill="white"/>
<path d="M83.7181 15.394L87.225 6.31837H94.574V19.7381H89.9898V10.0285L85.9323 19.7381H81.4679L77.4223 10.0989V19.7381H72.8382V6.31837H80.1872L83.7181 15.394Z" fill="white"/>
<path d="M101.6 15.2883L107.716 6.31837H114V19.7381H109.176V10.5098L102.881 19.7381H96.7885V6.31837H101.6V15.2883Z" fill="white"/>
<path d="M26.9821 2.44464C28.8487 2.46907 32.4731 2.1634 32.8456 0C32.8856 1.13473 32.8237 2.31944 32.7209 3.44597C32.634 4.11377 32.4191 4.6684 32.076 5.10987C31.7071 5.551 31.1452 5.87811 30.3904 6.09121C29.6359 6.28716 28.5717 6.37615 27.1979 6.35817L24.6316 6.32458L24.6848 2.41457L26.9821 2.44464Z" fill="white"/>
<path d="M24.5939 15.2882L30.7101 6.31824H36.9938V19.738H32.1703V10.5097L25.8746 19.738H19.7823V6.31824H24.5939V15.2882Z" fill="white"/>
</g>
</svg>
