<svg width="158" height="36" viewBox="0 0 158 36" fill="none" xmlns="http://www.w3.org/2000/svg">
<g id="Frame 13">
<path id="logo" fill-rule="evenodd" clip-rule="evenodd" d="M123.859 0C122.298 0 121.031 1.25265 121.031 2.79787V3.91702C121.031 5.46225 122.298 6.7149 123.859 6.7149H124.991C126.553 6.7149 127.819 5.46225 127.819 3.91702V2.79787C127.819 1.25265 126.553 0 124.991 0H123.859ZM3.71081 32.6426C6.21484 34.8809 9.86529 36 14.6622 36C19.1574 36 22.6571 35.0301 25.1611 33.0902C27.6953 31.1205 29.1132 28.2704 29.4149 24.5399V24.4504H22.4006V24.4951C22.0989 26.4947 21.3296 27.9869 20.0927 28.9717C18.8557 29.9268 17.0908 30.4043 14.7979 30.4043C12.2034 30.4043 10.2274 29.7477 8.86971 28.4346C7.51215 27.1214 6.83335 25.2114 6.83335 22.7045V22.3464C6.83335 19.75 7.5272 17.7504 8.91496 16.3477C10.3028 14.9451 12.2788 14.2437 14.8432 14.2437C17.0757 14.2437 18.8105 14.7212 20.0474 15.6763C21.2843 16.6313 22.0536 18.0787 22.3554 20.0186V20.1081H29.4149V20.0633C29.0529 16.4223 27.6048 13.632 25.0705 11.6921C22.5665 9.75221 19.1424 8.7823 14.7979 8.7823C10.3028 8.7823 6.71263 10.0059 4.02758 12.4531C1.34254 14.9003 0 18.1981 0 22.3464V22.7493C0 27.0766 1.23692 30.3744 3.71081 32.6426ZM34.6919 32.6426C37.196 34.8809 40.8616 36 45.6886 36C50.395 36 54.0455 34.8361 56.6401 32.5083C59.2648 30.1804 60.5772 26.9275 60.5772 22.7493V22.3464C60.5772 18.1384 59.2496 14.8257 56.5949 12.4083C53.9398 9.99098 50.3346 8.7823 45.7791 8.7823C41.2839 8.7823 37.6938 10.0059 35.0087 12.4531C32.3236 14.8705 30.9811 18.1682 30.9811 22.3464V22.7493C30.9811 27.1065 32.2181 30.4043 34.6919 32.6426ZM51.7526 28.4346C50.395 29.7477 48.4038 30.4043 45.7791 30.4043C43.1845 30.4043 41.1934 29.7477 39.8056 28.4346C38.448 27.1214 37.7692 25.2114 37.7692 22.7045V22.3464C37.7692 19.75 38.4631 17.7504 39.8509 16.3477C41.2688 14.9451 43.2599 14.2437 45.8244 14.2437C48.4189 14.2437 50.395 14.9451 51.7526 16.3477C53.1404 17.7206 53.8343 19.7201 53.8343 22.3464V22.7045C53.8343 25.2114 53.1404 27.1214 51.7526 28.4346ZM88.8766 27.2706C88.8766 29.9566 87.73 32.0905 85.4373 33.6722C83.1447 35.224 79.9769 36 75.934 36C71.5292 36 68.1204 35.239 65.7067 33.7169C63.293 32.1651 61.8449 29.8372 61.3623 26.7334H68.7387C69.0402 28.1361 69.7795 29.1508 70.9561 29.7775C72.1327 30.4043 73.8824 30.7176 76.2056 30.7176C78.2872 30.7176 79.8106 30.464 80.7762 29.9566C81.7718 29.4492 82.2696 28.6434 82.2696 27.5392C82.2696 26.6737 81.7871 26.047 80.8214 25.6591C79.8559 25.2711 77.6084 24.9428 74.0786 24.6742C69.7948 24.3459 66.7775 23.5998 65.0279 22.4359C63.3083 21.2422 62.4484 19.4963 62.4484 17.1983C62.4484 14.5721 63.5192 12.5128 65.6614 11.0206C67.8336 9.52838 70.8356 8.7823 74.6669 8.7823C78.6793 8.7823 81.817 9.49856 84.0797 10.9311C86.3724 12.3338 87.8205 14.4676 88.4241 17.3326H81.455C81.1835 16.109 80.5047 15.2137 79.4186 14.6466C78.3325 14.0796 76.7333 13.7961 74.6217 13.7961C72.721 13.7961 71.2882 14.0497 70.3226 14.5571C69.3875 15.0346 68.9197 15.7658 68.9197 16.7506C68.9197 17.646 69.4022 18.2876 70.3678 18.6756C71.3634 19.0635 73.5656 19.3918 76.9749 19.6604C81.5302 20.0484 84.6527 20.8243 86.3424 21.9883C88.0321 23.1223 88.8766 24.8831 88.8766 27.2706ZM111.756 35.239H119.449L108.497 19.4366L119.132 9.49856H110.534L97.3651 21.854V9.49856H90.939V35.239H97.3651V28.6136L103.474 22.9731L111.756 35.239ZM127.825 9.49856V35.239H121.037V9.49856H127.825ZM139.401 16.3925C140.638 14.9898 142.463 14.2885 144.876 14.2885C147.079 14.2885 148.693 14.8854 149.719 16.0792C150.775 17.2729 151.302 19.1531 151.302 21.7197V35.239H158V20.1081C158 16.5566 157.035 13.7811 155.104 11.7816C153.173 9.78209 150.488 8.7823 147.049 8.7823C144.695 8.7823 142.659 9.30455 140.939 10.3491C139.25 11.3937 138.605 12.0313 137.545 14.1327V9.49856H130.848V35.239H137.545V22.615C137.545 19.8693 138.164 17.7952 139.401 16.3925Z" fill="white"/>
</g>
</svg>
