<svg width="104" height="24" viewBox="0 0 104 24" fill="none" xmlns="http://www.w3.org/2000/svg">
<path fill-rule="evenodd" clip-rule="evenodd" d="M81.5277 0C80.4997 0 79.666 0.835097 79.666 1.86525V2.61135C79.666 3.6415 80.4997 4.4766 81.5277 4.4766H82.2724C83.3005 4.4766 84.1341 3.6415 84.1341 2.61135V1.86525C84.1341 0.835097 83.3005 0 82.2724 0H81.5277ZM2.44256 21.7617C4.09078 23.2539 6.49361 24 9.65106 24C12.6099 24 14.9135 23.3534 16.5617 22.0601C18.2298 20.747 19.1631 18.847 19.3617 16.3599V16.3003H14.7447V16.3301C14.5461 17.6632 14.0397 18.6579 13.2256 19.3145C12.4114 19.9512 11.2497 20.2695 9.74042 20.2695C8.03264 20.2695 6.73195 19.8318 5.83829 18.9564C4.94471 18.0809 4.4979 16.8076 4.4979 15.1363V14.8976C4.4979 13.1666 4.95461 11.8336 5.86808 10.8985C6.78158 9.96337 8.08228 9.49583 9.77021 9.49583C11.2397 9.49583 12.3816 9.81416 13.1957 10.4508C14.0099 11.0875 14.5163 12.0525 14.7149 13.3457V13.4054H19.3617V13.3755C19.1234 10.9482 18.1702 9.08798 16.5021 7.79473C14.8539 6.50147 12.6 5.85487 9.74042 5.85487C6.78158 5.85487 4.41844 6.67062 2.65106 8.30207C0.883695 9.93353 0 12.1321 0 14.8976V15.1662C0 18.0511 0.814176 20.2496 2.44256 21.7617ZM22.8352 21.7617C24.4834 23.2539 26.8962 24 30.0735 24C33.1714 24 35.5743 23.2241 37.2821 21.6722C39.0098 20.1203 39.8736 17.9516 39.8736 15.1662V14.8976C39.8736 12.0923 38.9997 9.8838 37.2523 8.27223C35.5047 6.66066 33.1317 5.85487 30.1331 5.85487C27.1742 5.85487 24.8111 6.67062 23.0437 8.30207C21.2763 9.91365 20.3926 12.1121 20.3926 14.8976V15.1662C20.3926 18.071 21.2068 20.2695 22.8352 21.7617ZM34.065 18.9564C33.1714 19.8318 31.8607 20.2695 30.1331 20.2695C28.4253 20.2695 27.1146 19.8318 26.2012 18.9564C25.3075 18.0809 24.8607 16.8076 24.8607 15.1363V14.8976C24.8607 13.1666 25.3175 11.8336 26.231 10.8985C27.1643 9.96337 28.4749 9.49583 30.1629 9.49583C31.8706 9.49583 33.1714 9.96337 34.065 10.8985C34.9785 11.8137 35.4352 13.1468 35.4352 14.8976V15.1363C35.4352 16.8076 34.9785 18.0809 34.065 18.9564ZM58.5011 18.1804C58.5011 19.9711 57.7463 21.3937 56.2372 22.4481C54.7281 23.4827 52.643 24 49.9819 24C47.0825 24 44.8388 23.4927 43.25 22.478C41.6612 21.4434 40.708 19.8915 40.3904 17.8223H45.2457C45.4442 18.7574 45.9308 19.4339 46.7053 19.8517C47.4798 20.2695 48.6314 20.4784 50.1606 20.4784C51.5308 20.4784 52.5336 20.3093 53.1691 19.9711C53.8245 19.6328 54.1521 19.0956 54.1521 18.3595C54.1521 17.7825 53.8345 17.3647 53.1989 17.106C52.5633 16.8474 51.084 16.6285 48.7606 16.4495C45.9409 16.2306 43.9548 15.7332 42.8032 14.9573C41.6713 14.1615 41.1053 12.9975 41.1053 11.4655C41.1053 9.7147 41.8101 8.34188 43.2202 7.34707C44.65 6.35225 46.626 5.85487 49.1479 5.85487C51.7889 5.85487 53.8542 6.33237 55.3436 7.28738C56.8527 8.2225 57.8059 9.64505 58.2032 11.5551H53.616C53.4372 10.7393 52.9904 10.1424 52.2755 9.76443C51.5606 9.38642 50.508 9.19739 49.1181 9.19739C47.867 9.19739 46.9239 9.3665 46.2883 9.70474C45.6728 10.0231 45.3649 10.5105 45.3649 11.1671C45.3649 11.764 45.6825 12.1917 46.3181 12.4504C46.9734 12.709 48.4229 12.9279 50.667 13.107C53.6655 13.3656 55.7208 13.8829 56.833 14.6588C57.9452 15.4149 58.5011 16.5887 58.5011 18.1804ZM73.5608 23.4927H78.6246L71.4161 12.9577L78.4161 6.33237H72.7565L64.0884 14.5693V6.33237H59.8586V23.4927H64.0884V19.0757L68.1097 15.3154L73.5608 23.4927ZM84.1382 6.33237V23.4927H79.6701V6.33237H84.1382ZM91.7574 10.9283C92.5717 9.99322 93.7733 9.52567 95.3617 9.52567C96.8116 9.52567 97.8739 9.92361 98.5489 10.7194C99.2441 11.5153 99.5915 12.7687 99.5915 14.4798V23.4927H104V13.4054C104 11.0378 103.365 9.18743 102.094 7.85441C100.823 6.5214 99.0553 5.85487 96.7915 5.85487C95.2425 5.85487 93.9021 6.20303 92.7702 6.89941C91.6584 7.59578 91.2339 8.02087 90.5362 9.42178V6.33237H86.1276V23.4927H90.5362V15.0767C90.5362 13.2462 90.9435 11.8635 91.7574 10.9283Z" fill="black"/>
</svg>
